# WaveFront *.obj file (generated by Cinema 4D)

mtllib ./未标题_1.mtl

v -296.747567 83.053341 264.558604
v -296.747567 87.053341 264.558604
v -295.571996 83.435307 264.558604
v -295.796510 83.435307 263.867621
v -296.384295 83.435307 263.440570
v -297.110838 83.435307 263.440570
v -297.698623 83.435307 263.867621
v -297.923137 83.435307 264.558604
v -297.698623 83.435307 265.249587
v -297.110838 83.435307 265.676638
v -296.384295 83.435307 265.676638
v -295.796510 83.435307 265.249587
v -294.845454 84.435307 264.558604
v -295.208725 84.435307 263.440570
v -296.159781 84.435307 262.749587
v -297.335352 84.435307 262.749587
v -298.286409 84.435307 263.440570
v -298.649680 84.435307 264.558604
v -298.286409 84.435307 265.676638
v -297.335352 84.435307 266.367621
v -296.159781 84.435307 266.367621
v -295.208725 84.435307 265.676638
v -294.845454 85.671374 264.558604
v -295.208725 85.671374 263.440570
v -296.159781 85.671374 262.749587
v -297.335352 85.671374 262.749587
v -298.286409 85.671374 263.440570
v -298.649680 85.671374 264.558604
v -298.286409 85.671374 265.676638
v -297.335352 85.671374 266.367621
v -296.159781 85.671374 266.367621
v -295.208725 85.671374 265.676638
v -295.571996 86.671374 264.558604
v -295.796510 86.671374 263.867621
v -296.384295 86.671374 263.440570
v -297.110838 86.671374 263.440570
v -297.698623 86.671374 263.867621
v -297.923137 86.671374 264.558604
v -297.698623 86.671374 265.249587
v -297.110838 86.671374 265.676638
v -296.384295 86.671374 265.676638
v -295.796510 86.671374 265.249587
# 42 vertices

vn 0.584051 -0.811717 -0.000002
vn 0.950212 -0.311604 -0.000003
vn 0.768737 -0.311605 -0.558521
vn 0.472503 -0.811718 -0.343301
vn 0.293636 -0.311613 -0.903701
vn 0.180477 -0.811720 -0.555462
vn -0.293638 -0.311614 -0.903700
vn -0.180481 -0.811722 -0.555459
vn -0.768737 -0.311609 -0.558519
vn -0.472502 -0.811720 -0.343296
vn -0.950209 -0.311614 -0.000003
vn -0.584043 -0.811723 -0.000001
vn -0.768736 -0.311611 0.558519
vn -0.472505 -0.811721 0.343291
vn -0.293634 -0.311608 0.903703
vn -0.180485 -0.811721 0.555459
vn 0.293632 -0.311607 0.903704
vn 0.180481 -0.811719 0.555462
vn 0.768736 -0.311605 0.558522
vn 0.472506 -0.811718 0.343296
vn 0.950212 0.311604 -0.000003
vn 0.768737 0.311603 -0.558522
vn 0.293636 0.311611 -0.903701
vn -0.293638 0.311615 -0.903700
vn -0.768737 0.311610 -0.558518
vn -0.950209 0.311613 -0.000003
vn -0.768736 0.311612 0.558519
vn -0.293634 0.311609 0.903703
vn 0.293632 0.311607 0.903704
vn 0.768736 0.311605 0.558522
vn 0.584050 0.811717 -0.000002
vn 0.472504 0.811717 -0.343302
vn 0.180478 0.811719 -0.555463
vn -0.180481 0.811722 -0.555458
vn -0.472502 0.811721 -0.343295
vn -0.584043 0.811723 -0.000001
vn -0.472504 0.811721 0.343291
vn -0.180484 0.811721 0.555458
vn 0.180481 0.811719 0.555462
vn 0.472506 0.811718 0.343296
vn -0.000001 -1.000000 -0.000003
vn -0.000001 1.000000 -0.000003
# 42 normals

vt 0.000000 0.200000 0.000000
vt 0.000000 0.400000 0.000000
vt 0.100000 0.400000 0.000000
vt 0.100000 0.200000 0.000000
vt 0.200000 0.400000 0.000000
vt 0.200000 0.200000 0.000000
vt 0.300000 0.400000 0.000000
vt 0.300000 0.200000 0.000000
vt 0.400000 0.400000 0.000000
vt 0.400000 0.200000 0.000000
vt 0.500000 0.400000 0.000000
vt 0.500000 0.200000 0.000000
vt 0.600000 0.400000 0.000000
vt 0.600000 0.200000 0.000000
vt 0.700000 0.400000 0.000000
vt 0.700000 0.200000 0.000000
vt 0.800000 0.400000 0.000000
vt 0.800000 0.200000 0.000000
vt 0.900000 0.400000 0.000000
vt 0.900000 0.200000 0.000000
vt 1.000000 0.400000 0.000000
vt 1.000000 0.200000 0.000000
vt 0.000000 0.600000 0.000000
vt 0.100000 0.600000 0.000000
vt 0.200000 0.600000 0.000000
vt 0.300000 0.600000 0.000000
vt 0.400000 0.600000 0.000000
vt 0.500000 0.600000 0.000000
vt 0.600000 0.600000 0.000000
vt 0.700000 0.600000 0.000000
vt 0.800000 0.600000 0.000000
vt 0.900000 0.600000 0.000000
vt 1.000000 0.600000 0.000000
vt 0.000000 0.800000 0.000000
vt 0.100000 0.800000 0.000000
vt 0.200000 0.800000 0.000000
vt 0.300000 0.800000 0.000000
vt 0.400000 0.800000 0.000000
vt 0.500000 0.800000 0.000000
vt 0.600000 0.800000 0.000000
vt 0.700000 0.800000 0.000000
vt 0.800000 0.800000 0.000000
vt 0.900000 0.800000 0.000000
vt 1.000000 0.800000 0.000000
vt 0.000000 0.000000 0.000000
vt 0.000000 1.000000 0.000000
vt 0.100000 0.000000 0.000000
vt 0.100000 1.000000 0.000000
vt 0.200000 0.000000 0.000000
vt 0.200000 1.000000 0.000000
vt 0.300000 0.000000 0.000000
vt 0.300000 1.000000 0.000000
vt 0.400000 0.000000 0.000000
vt 0.400000 1.000000 0.000000
vt 0.500000 0.000000 0.000000
vt 0.500000 1.000000 0.000000
vt 0.600000 0.000000 0.000000
vt 0.600000 1.000000 0.000000
vt 0.700000 0.000000 0.000000
vt 0.700000 1.000000 0.000000
vt 0.800000 0.000000 0.000000
vt 0.800000 1.000000 0.000000
vt 0.900000 0.000000 0.000000
vt 0.900000 1.000000 0.000000
# 64 texture coordinates

o ??
usemtl default
f 4/4/4 14/3/3 13/2/2 3/1/1
f 5/6/6 15/5/5 14/3/3 4/4/4
f 6/8/8 16/7/7 15/5/5 5/6/6
f 7/10/10 17/9/9 16/7/7 6/8/8
f 8/12/12 18/11/11 17/9/9 7/10/10
f 9/14/14 19/13/13 18/11/11 8/12/12
f 10/16/16 20/15/15 19/13/13 9/14/14
f 11/18/18 21/17/17 20/15/15 10/16/16
f 12/20/20 22/19/19 21/17/17 11/18/18
f 3/22/1 13/21/2 22/19/19 12/20/20
f 14/3/3 24/24/22 23/23/21 13/2/2
f 15/5/5 25/25/23 24/24/22 14/3/3
f 16/7/7 26/26/24 25/25/23 15/5/5
f 17/9/9 27/27/25 26/26/24 16/7/7
f 18/11/11 28/28/26 27/27/25 17/9/9
f 19/13/13 29/29/27 28/28/26 18/11/11
f 20/15/15 30/30/28 29/29/27 19/13/13
f 21/17/17 31/31/29 30/30/28 20/15/15
f 22/19/19 32/32/30 31/31/29 21/17/17
f 13/21/2 23/33/21 32/32/30 22/19/19
f 24/24/22 34/35/32 33/34/31 23/23/21
f 25/25/23 35/36/33 34/35/32 24/24/22
f 26/26/24 36/37/34 35/36/33 25/25/23
f 27/27/25 37/38/35 36/37/34 26/26/24
f 28/28/26 38/39/36 37/38/35 27/27/25
f 29/29/27 39/40/37 38/39/36 28/28/26
f 30/30/28 40/41/38 39/40/37 29/29/27
f 31/31/29 41/42/39 40/41/38 30/30/28
f 32/32/30 42/43/40 41/42/39 31/31/29
f 23/33/21 33/44/31 42/43/40 32/32/30
f 4/4/4 3/1/1 1/45/41
f 2/46/42 33/34/31 34/35/32
f 5/6/6 4/4/4 1/47/41
f 2/48/42 34/35/32 35/36/33
f 6/8/8 5/6/6 1/49/41
f 2/50/42 35/36/33 36/37/34
f 7/10/10 6/8/8 1/51/41
f 2/52/42 36/37/34 37/38/35
f 8/12/12 7/10/10 1/53/41
f 2/54/42 37/38/35 38/39/36
f 9/14/14 8/12/12 1/55/41
f 2/56/42 38/39/36 39/40/37
f 10/16/16 9/14/14 1/57/41
f 2/58/42 39/40/37 40/41/38
f 11/18/18 10/16/16 1/59/41
f 2/60/42 40/41/38 41/42/39
f 12/20/20 11/18/18 1/61/41
f 2/62/42 41/42/39 42/43/40
f 3/22/1 12/20/20 1/63/41
f 2/64/42 42/43/40 33/44/31

